<svg width="71" height="71" fill="none" xmlns="http://www.w3.org/2000/svg"><g filter="url(#filter0_bi_10_22335)"><mask id="path-1-outside-1_10_22335" maskUnits="userSpaceOnUse" x="0" y="0" width="71" height="71" fill="#000"><path fill="#fff" d="M0 0h71v71H0z"/><path d="M67.574 63.531h-.426a2 2 0 01-2-2V31.065c0-.737.416-1.4 1.015-1.83a9.206 9.206 0 003.772-6.381 3.94 3.94 0 00-.413-2.24l-8.75-17.388A4.021 4.021 0 0057.162 1H13.838a4.022 4.022 0 00-3.612 2.226l-8.75 17.387a3.95 3.95 0 00-.412 2.24 9.218 9.218 0 003.773 6.389c.598.43 1.014 1.091 1.014 1.828v30.46a2 2 0 01-2 2h-.426A2.43 2.43 0 001 65.957v1.617A2.428 2.428 0 003.426 70h64.148A2.428 2.428 0 0070 67.574v-1.617a2.428 2.428 0 00-2.426-2.426zm.755-40.868a7.612 7.612 0 01-7.564 6.703h-.005a7.63 7.63 0 01-6.999-4.653c-.464-1.096.48-2.15 1.67-2.15h12.802c.053 0 .103.047.096.1zM57.16 2.617a2.411 2.411 0 012.166 1.335l7.093 14.094a2 2 0 01-1.787 2.9H54.536a2 2 0 01-1.94-1.513L48.991 5.105a2 2 0 011.94-2.488h6.23zm-20.852 2a2 2 0 012-2h6.829a2 2 0 011.94 1.512l3.604 14.328a2 2 0 01-1.94 2.488H38.31a2 2 0 01-2-2V4.617zM49.34 22.562c1.172 0 2.12 1.024 1.74 2.133-2.263 6.63-11.957 6.48-14.28.005-.398-1.107.55-2.137 1.726-2.137H49.34zm.421 6.721c1.359-1.077 4.109-1.16 5.5-.126a9.243 9.243 0 005.497 1.825h.084c1.352-.014 2.688.95 2.688 2.303V61.53a2 2 0 01-2 2H9.47a2 2 0 01-2-2V33.257c0-1.343 1.314-2.303 2.656-2.276l.075.001a9.472 9.472 0 005.475-1.834c1.404-1.03 4.242-.939 5.621.125a9.593 9.593 0 005.795 1.985 9.402 9.402 0 005.68-2.005c1.356-1.064 4.059-1.032 5.419.026 3.331 2.593 8.269 2.624 11.572.004zM19.93 24.701c-.382-1.11.566-2.139 1.74-2.139h10.802c1.179 0 2.128 1.037 1.726 2.145-2.346 6.465-11.987 6.62-14.268-.006zM32.691 2.617a2 2 0 012 2v14.328a2 2 0 01-2 2H22.257a2 2 0 01-1.94-2.488L23.923 4.13a2 2 0 011.94-1.512h6.828zM11.673 3.952a2.413 2.413 0 012.166-1.335h6.231a2 2 0 011.94 2.488l-3.605 14.328a2 2 0 01-1.94 1.512H6.366a2 2 0 01-1.786-2.899l7.093-14.094zm-9.002 18.71c-.007-.052.043-.1.096-.1h12.907c1.16 0 2.084 1.008 1.612 2.067-1.193 2.679-4.16 4.84-7.056 4.736a7.728 7.728 0 01-7.559-6.702zm65.712 44.912a.809.809 0 01-.809.809H3.426a.809.809 0 01-.809-.809v-1.617a.808.808 0 01.809-.809h64.148a.809.809 0 01.809.809v1.617z"/><path d="M23.687 37.666a4.056 4.056 0 00-2.021 3.504v11.303a4.055 4.055 0 002.021 3.504l9.791 5.65a4.053 4.053 0 004.044 0l9.791-5.652a4.053 4.053 0 002.021-3.504V41.167a4.053 4.053 0 00-2.021-3.504l-9.791-5.65a4.053 4.053 0 00-4.044 0l-9.791 5.653zm13.026-4.253l9.791 5.653a2.433 2.433 0 011.213 2.102v11.305a2.434 2.434 0 01-1.213 2.103l-9.791 5.651a2.433 2.433 0 01-2.426 0l-9.791-5.652a2.433 2.433 0 01-1.213-2.103V41.167a2.434 2.434 0 011.213-2.102l9.791-5.652a2.433 2.433 0 012.426 0z"/><path d="M33.48 50.996a.809.809 0 00.808-.808v-.335a2 2 0 012-2h.783a.808.808 0 100-1.617h-1.795a.987.987 0 010-1.975h2.247a.808.808 0 000-1.617H33.48a.809.809 0 00-.809.809v6.735a.809.809 0 00.809.808zm-6.736 0a.809.809 0 00.81-.808c0-1.072 1.41-1.463 1.962-.544l.576.96a.809.809 0 001.502-.416v-6.735a.809.809 0 10-1.617 0c0 1.072-1.412 1.463-1.963.543l-.576-.96a.809.809 0 00-1.502.417v6.735a.808.808 0 00.808.808zm13.468-6.735c.67 0 1.214.544 1.214 1.214v4.713a.809.809 0 001.617 0v-4.715c0-.67.543-1.212 1.212-1.212a.809.809 0 100-1.617h-4.043a.809.809 0 000 1.617zM18.52 39.542l-.002.001h-4.372a2 2 0 01-1.28-.463l-2.454-2.045a.809.809 0 10-1.035 1.24l3.234 2.695a.809.809 0 00.518.188h5.39a.809.809 0 100-1.616zm0 12.938h-5.391a.808.808 0 00-.518.188l-3.234 2.695a.808.808 0 101.035 1.24l2.454-2.042a2 2 0 011.28-.463h4.373a.808.808 0 100-1.617zm0-6.468H9.895a.809.809 0 000 1.617h8.625a.809.809 0 100-1.617zm33.96-4.852h5.391a.81.81 0 00.518-.187l3.234-2.696a.808.808 0 10-1.035-1.24l-2.453 2.043a2 2 0 01-1.28.463H52.48a.809.809 0 100 1.617zm0 12.939l.002-.001h4.372a2 2 0 011.28.463l2.454 2.044a.809.809 0 101.035-1.24l-3.234-2.695a.809.809 0 00-.518-.187h-5.39a.809.809 0 100 1.616zm0-6.47h8.626a.809.809 0 000-1.617H52.48a.809.809 0 100 1.617z"/></mask><path d="M67.574 63.531h-.426a2 2 0 01-2-2V31.065c0-.737.416-1.4 1.015-1.83a9.206 9.206 0 003.772-6.381 3.94 3.94 0 00-.413-2.24l-8.75-17.388A4.021 4.021 0 0057.162 1H13.838a4.022 4.022 0 00-3.612 2.226l-8.75 17.387a3.95 3.95 0 00-.412 2.24 9.218 9.218 0 003.773 6.389c.598.43 1.014 1.091 1.014 1.828v30.46a2 2 0 01-2 2h-.426A2.43 2.43 0 001 65.957v1.617A2.428 2.428 0 003.426 70h64.148A2.428 2.428 0 0070 67.574v-1.617a2.428 2.428 0 00-2.426-2.426zm.755-40.868a7.612 7.612 0 01-7.564 6.703h-.005a7.63 7.63 0 01-6.999-4.653c-.464-1.096.48-2.15 1.67-2.15h12.802c.053 0 .103.047.096.1zM57.16 2.617a2.411 2.411 0 012.166 1.335l7.093 14.094a2 2 0 01-1.787 2.9H54.536a2 2 0 01-1.94-1.513L48.991 5.105a2 2 0 011.94-2.488h6.23zm-20.852 2a2 2 0 012-2h6.829a2 2 0 011.94 1.512l3.604 14.328a2 2 0 01-1.94 2.488H38.31a2 2 0 01-2-2V4.617zM49.34 22.562c1.172 0 2.12 1.024 1.74 2.133-2.263 6.63-11.957 6.48-14.28.005-.398-1.107.55-2.137 1.726-2.137H49.34zm.421 6.721c1.359-1.077 4.109-1.16 5.5-.126a9.243 9.243 0 005.497 1.825h.084c1.352-.014 2.688.95 2.688 2.303V61.53a2 2 0 01-2 2H9.47a2 2 0 01-2-2V33.257c0-1.343 1.314-2.303 2.656-2.276l.075.001a9.472 9.472 0 005.475-1.834c1.404-1.03 4.242-.939 5.621.125a9.593 9.593 0 005.795 1.985 9.402 9.402 0 005.68-2.005c1.356-1.064 4.059-1.032 5.419.026 3.331 2.593 8.269 2.624 11.572.004zM19.93 24.701c-.382-1.11.566-2.139 1.74-2.139h10.802c1.179 0 2.128 1.037 1.726 2.145-2.346 6.465-11.987 6.62-14.268-.006zM32.691 2.617a2 2 0 012 2v14.328a2 2 0 01-2 2H22.257a2 2 0 01-1.94-2.488L23.923 4.13a2 2 0 011.94-1.512h6.828zM11.673 3.952a2.413 2.413 0 012.166-1.335h6.231a2 2 0 011.94 2.488l-3.605 14.328a2 2 0 01-1.94 1.512H6.366a2 2 0 01-1.786-2.899l7.093-14.094zm-9.002 18.71c-.007-.052.043-.1.096-.1h12.907c1.16 0 2.084 1.008 1.612 2.067-1.193 2.679-4.16 4.84-7.056 4.736a7.728 7.728 0 01-7.559-6.702zm65.712 44.912a.809.809 0 01-.809.809H3.426a.809.809 0 01-.809-.809v-1.617a.808.808 0 01.809-.809h64.148a.809.809 0 01.809.809v1.617z" fill="#fff"/><path d="M23.687 37.666a4.056 4.056 0 00-2.021 3.504v11.303a4.055 4.055 0 002.021 3.504l9.791 5.65a4.053 4.053 0 004.044 0l9.791-5.652a4.053 4.053 0 002.021-3.504V41.167a4.053 4.053 0 00-2.021-3.504l-9.791-5.65a4.053 4.053 0 00-4.044 0l-9.791 5.653zm13.026-4.253l9.791 5.653a2.433 2.433 0 011.213 2.102v11.305a2.434 2.434 0 01-1.213 2.103l-9.791 5.651a2.433 2.433 0 01-2.426 0l-9.791-5.652a2.433 2.433 0 01-1.213-2.103V41.167a2.434 2.434 0 011.213-2.102l9.791-5.652a2.433 2.433 0 012.426 0z" fill="#fff"/><path d="M33.48 50.996a.809.809 0 00.808-.808v-.335a2 2 0 012-2h.783a.808.808 0 100-1.617h-1.795a.987.987 0 010-1.975h2.247a.808.808 0 000-1.617H33.48a.809.809 0 00-.809.809v6.735a.809.809 0 00.809.808zm-6.736 0a.809.809 0 00.81-.808c0-1.072 1.41-1.463 1.962-.544l.576.96a.809.809 0 001.502-.416v-6.735a.809.809 0 10-1.617 0c0 1.072-1.412 1.463-1.963.543l-.576-.96a.809.809 0 00-1.502.417v6.735a.808.808 0 00.808.808zm13.468-6.735c.67 0 1.214.544 1.214 1.214v4.713a.809.809 0 001.617 0v-4.715c0-.67.543-1.212 1.212-1.212a.809.809 0 100-1.617h-4.043a.809.809 0 000 1.617zM18.52 39.542l-.002.001h-4.372a2 2 0 01-1.28-.463l-2.454-2.045a.809.809 0 10-1.035 1.24l3.234 2.695a.809.809 0 00.518.188h5.39a.809.809 0 100-1.616zm0 12.938h-5.391a.808.808 0 00-.518.188l-3.234 2.695a.808.808 0 101.035 1.24l2.454-2.042a2 2 0 011.28-.463h4.373a.808.808 0 100-1.617zm0-6.468H9.895a.809.809 0 000 1.617h8.625a.809.809 0 100-1.617zm33.96-4.852h5.391a.81.81 0 00.518-.187l3.234-2.696a.808.808 0 10-1.035-1.24l-2.453 2.043a2 2 0 01-1.28.463H52.48a.809.809 0 100 1.617zm0 12.939l.002-.001h4.372a2 2 0 011.28.463l2.454 2.044a.809.809 0 101.035-1.24l-3.234-2.695a.809.809 0 00-.518-.187h-5.39a.809.809 0 100 1.616zm0-6.47h8.626a.809.809 0 000-1.617H52.48a.809.809 0 100 1.617z" fill="#fff"/><path d="M67.574 63.531h-.426a2 2 0 01-2-2V31.065c0-.737.416-1.4 1.015-1.83a9.206 9.206 0 003.772-6.381 3.94 3.94 0 00-.413-2.24l-8.75-17.388A4.021 4.021 0 0057.162 1H13.838a4.022 4.022 0 00-3.612 2.226l-8.75 17.387a3.95 3.95 0 00-.412 2.24 9.218 9.218 0 003.773 6.389c.598.43 1.014 1.091 1.014 1.828v30.46a2 2 0 01-2 2h-.426A2.43 2.43 0 001 65.957v1.617A2.428 2.428 0 003.426 70h64.148A2.428 2.428 0 0070 67.574v-1.617a2.428 2.428 0 00-2.426-2.426zm.755-40.868a7.612 7.612 0 01-7.564 6.703h-.005a7.63 7.63 0 01-6.999-4.653c-.464-1.096.48-2.15 1.67-2.15h12.802c.053 0 .103.047.096.1zM57.16 2.617a2.411 2.411 0 012.166 1.335l7.093 14.094a2 2 0 01-1.787 2.9H54.536a2 2 0 01-1.94-1.513L48.991 5.105a2 2 0 011.94-2.488h6.23zm-20.852 2a2 2 0 012-2h6.829a2 2 0 011.94 1.512l3.604 14.328a2 2 0 01-1.94 2.488H38.31a2 2 0 01-2-2V4.617zM49.34 22.562c1.172 0 2.12 1.024 1.74 2.133-2.263 6.63-11.957 6.48-14.28.005-.398-1.107.55-2.137 1.726-2.137H49.34zm.421 6.721c1.359-1.077 4.109-1.16 5.5-.126a9.243 9.243 0 005.497 1.825h.084c1.352-.014 2.688.95 2.688 2.303V61.53a2 2 0 01-2 2H9.47a2 2 0 01-2-2V33.257c0-1.343 1.314-2.303 2.656-2.276l.075.001a9.472 9.472 0 005.475-1.834c1.404-1.03 4.242-.939 5.621.125a9.593 9.593 0 005.795 1.985 9.402 9.402 0 005.68-2.005c1.356-1.064 4.059-1.032 5.419.026 3.331 2.593 8.269 2.624 11.572.004zM19.93 24.701c-.382-1.11.566-2.139 1.74-2.139h10.802c1.179 0 2.128 1.037 1.726 2.145-2.346 6.465-11.987 6.62-14.268-.006zM32.691 2.617a2 2 0 012 2v14.328a2 2 0 01-2 2H22.257a2 2 0 01-1.94-2.488L23.923 4.13a2 2 0 011.94-1.512h6.828zM11.673 3.952a2.413 2.413 0 012.166-1.335h6.231a2 2 0 011.94 2.488l-3.605 14.328a2 2 0 01-1.94 1.512H6.366a2 2 0 01-1.786-2.899l7.093-14.094zm-9.002 18.71c-.007-.052.043-.1.096-.1h12.907c1.16 0 2.084 1.008 1.612 2.067-1.193 2.679-4.16 4.84-7.056 4.736a7.728 7.728 0 01-7.559-6.702zm65.712 44.912a.809.809 0 01-.809.809H3.426a.809.809 0 01-.809-.809v-1.617a.808.808 0 01.809-.809h64.148a.809.809 0 01.809.809v1.617z" stroke="#fff" stroke-width=".4" mask="url(#path-1-outside-1_10_22335)"/><path d="M23.687 37.666a4.056 4.056 0 00-2.021 3.504v11.303a4.055 4.055 0 002.021 3.504l9.791 5.65a4.053 4.053 0 004.044 0l9.791-5.652a4.053 4.053 0 002.021-3.504V41.167a4.053 4.053 0 00-2.021-3.504l-9.791-5.65a4.053 4.053 0 00-4.044 0l-9.791 5.653zm13.026-4.253l9.791 5.653a2.433 2.433 0 011.213 2.102v11.305a2.434 2.434 0 01-1.213 2.103l-9.791 5.651a2.433 2.433 0 01-2.426 0l-9.791-5.652a2.433 2.433 0 01-1.213-2.103V41.167a2.434 2.434 0 011.213-2.102l9.791-5.652a2.433 2.433 0 012.426 0z" stroke="#fff" stroke-width=".4" mask="url(#path-1-outside-1_10_22335)"/><path d="M33.48 50.996a.809.809 0 00.808-.808v-.335a2 2 0 012-2h.783a.808.808 0 100-1.617h-1.795a.987.987 0 010-1.975h2.247a.808.808 0 000-1.617H33.48a.809.809 0 00-.809.809v6.735a.809.809 0 00.809.808zm-6.736 0a.809.809 0 00.81-.808c0-1.072 1.41-1.463 1.962-.544l.576.96a.809.809 0 001.502-.416v-6.735a.809.809 0 10-1.617 0c0 1.072-1.412 1.463-1.963.543l-.576-.96a.809.809 0 00-1.502.417v6.735a.808.808 0 00.808.808zm13.468-6.735c.67 0 1.214.544 1.214 1.214v4.713a.809.809 0 001.617 0v-4.715c0-.67.543-1.212 1.212-1.212a.809.809 0 100-1.617h-4.043a.809.809 0 000 1.617zM18.52 39.542l-.002.001h-4.372a2 2 0 01-1.28-.463l-2.454-2.045a.809.809 0 10-1.035 1.24l3.234 2.695a.809.809 0 00.518.188h5.39a.809.809 0 100-1.616zm0 12.938h-5.391a.808.808 0 00-.518.188l-3.234 2.695a.808.808 0 101.035 1.24l2.454-2.042a2 2 0 011.28-.463h4.373a.808.808 0 100-1.617zm0-6.468H9.895a.809.809 0 000 1.617h8.625a.809.809 0 100-1.617zm33.96-4.852h5.391a.81.81 0 00.518-.187l3.234-2.696a.808.808 0 10-1.035-1.24l-2.453 2.043a2 2 0 01-1.28.463H52.48a.809.809 0 100 1.617zm0 12.939l.002-.001h4.372a2 2 0 011.28.463l2.454 2.044a.809.809 0 101.035-1.24l-3.234-2.695a.809.809 0 00-.518-.187h-5.39a.809.809 0 100 1.616zm0-6.47h8.626a.809.809 0 000-1.617H52.48a.809.809 0 100 1.617z" stroke="#fff" stroke-width=".4" mask="url(#path-1-outside-1_10_22335)"/></g><defs><filter id="filter0_bi_10_22335" x="-3.2" y="-3.2" width="77.4" height="77.4" filterUnits="userSpaceOnUse" color-interpolation-filters="sRGB"><feFlood flood-opacity="0" result="BackgroundImageFix"/><feGaussianBlur in="BackgroundImage" stdDeviation="2"/><feComposite in2="SourceAlpha" operator="in" result="effect1_backgroundBlur_10_22335"/><feBlend in="SourceGraphic" in2="effect1_backgroundBlur_10_22335" result="shape"/><feColorMatrix in="SourceAlpha" values="0 0 0 0 0 0 0 0 0 0 0 0 0 0 0 0 0 0 127 0" result="hardAlpha"/><feOffset dy="4"/><feGaussianBlur stdDeviation="6"/><feComposite in2="hardAlpha" operator="arithmetic" k2="-1" k3="1"/><feColorMatrix values="0 0 0 0 0.0472222 0 0 0 0 0.133167 0 0 0 0 0.354167 0 0 0 0.15 0"/><feBlend in2="shape" result="effect2_innerShadow_10_22335"/></filter></defs></svg>