<svg width="71" height="71" fill="none" xmlns="http://www.w3.org/2000/svg"><g filter="url(#filter0_bi_10_22337)"><mask id="path-1-outside-1_10_22337" maskUnits="userSpaceOnUse" x="0" y="0" width="71" height="71" fill="#000"><path fill="#fff" d="M0 0h71v71H0z"/><path d="M7.199 8.008h12.397a.808.808 0 000-1.617H7.199a.809.809 0 000 1.617zm22.584 10.106a2.425 2.425 0 00-4.2 0l-5.282 9.142a2.428 2.428 0 00.899 3.32l5.282 3.014a2.436 2.436 0 002.403 0l5.282-3.013a2.425 2.425 0 00.899-3.32l-5.283-9.143zm3.96 10.566h.001a.802.802 0 01-.377.49l-5.282 3.013a.812.812 0 01-.801 0l-5.282-3.014a.81.81 0 01-.3-1.106l5.283-9.142a.808.808 0 011.401 0l5.282 9.142a.8.8 0 01.075.617z"/><path d="M33.307 32.293h-.002l-5.193 3.273a.813.813 0 01-.862 0l-5.194-3.273a1.347 1.347 0 00-1.76 1.997l5.514 6.68a2.44 2.44 0 003.742 0l5.514-6.68a1.348 1.348 0 00-1.76-1.997zm-5.002 7.649a.808.808 0 01-1.247 0l-1.605-1.946c-.518-.628.246-1.496.934-1.062a2.436 2.436 0 002.588 0c.688-.434 1.452.434.934 1.062l-1.604 1.946z"/><path d="M67.979 40.74l-4.932-2.848a2 2 0 01-.813-2.578l7.037-15.09a5.667 5.667 0 00-2.738-7.522L54.693 7.18a.574.574 0 01-.33-.52A5.667 5.667 0 0048.702 1H6.66A5.666 5.666 0 001 6.66v57.68A5.667 5.667 0 006.66 70h42.043c.608 0 1.21-.099 1.782-.29.68-.228 1.431-.22 2.129-.053a4.044 4.044 0 002.961-.43l12.404-7.162A4.053 4.053 0 0070 58.563V44.24a4.054 4.054 0 00-2.021-3.5zM54.362 11.95a2 2 0 012.846-1.813l8.642 4.03a4.048 4.048 0 011.955 5.374l-6.828 14.644a2 2 0 01-2.813.886l-2.589-1.495c-.656-.372-1.213-.992-1.213-1.746V11.95zm-5.66 56.433H6.66a4.046 4.046 0 01-4.043-4.043V6.66A4.047 4.047 0 016.66 2.617h42.043a4.046 4.046 0 014.042 4.043v25.17c0 .755-.556 1.376-1.213 1.75a1.707 1.707 0 01-2.56-1.48V13.669a2.428 2.428 0 00-2.425-2.426H8.816a2.428 2.428 0 00-2.426 2.426v31.266a2.429 2.429 0 002.426 2.425h26.291a2 2 0 012 2v1.391a2 2 0 01-2 2H7.2a.809.809 0 000 1.617h27.908a2 2 0 012 2v2.197c.004.344-.254.655-.597.655H7.199a.808.808 0 100 1.617h29.554c.666 0 1.265.359 1.768.795.188.163.392.308.608.434l9.707 5.606c.36.208.282.71-.133.712zm-1.347-54.715v21.167a2 2 0 01-1 1.732l-7.226 4.172a4.053 4.053 0 00-2.022 3.504 1.5 1.5 0 01-1.499 1.5H8.816a.809.809 0 01-.809-.81V13.669a.809.809 0 01.809-.809h37.73a.809.809 0 01.809.809zm21.028 44.896a2.434 2.434 0 01-1.213 2.103l-12.404 7.16a2.432 2.432 0 01-2.425 0l-12.404-7.162a2.433 2.433 0 01-1.213-2.102V44.24a2.433 2.433 0 011.213-2.102l12.404-7.16a2.434 2.434 0 012.425 0L67.17 42.14a2.434 2.434 0 011.213 2.102v14.322z"/><path d="M55.98 46.55h-4.852a.809.809 0 00-.808.81v8.085a.809.809 0 001.617 0v-.965a2 2 0 012-2h1.503a.808.808 0 000-1.617h-2.156a1.348 1.348 0 010-2.695h2.695a.808.808 0 100-1.617zm-8.086 0a.809.809 0 00-.808.81c0 1.45-1.912 1.98-2.658.736l-.692-1.153a.809.809 0 00-1.502.416v8.086a.809.809 0 001.617 0c0-1.451 1.912-1.98 2.659-.736l.69 1.152a.809.809 0 001.503-.416V47.36a.809.809 0 00-.809-.808zm16.17 0h-4.85a.809.809 0 000 1.618c.892 0 1.616.724 1.616 1.617v5.66a.809.809 0 001.617 0v-5.66c0-.893.724-1.617 1.617-1.617a.808.808 0 000-1.617z"/></mask><path d="M7.199 8.008h12.397a.808.808 0 000-1.617H7.199a.809.809 0 000 1.617zm22.584 10.106a2.425 2.425 0 00-4.2 0l-5.282 9.142a2.428 2.428 0 00.899 3.32l5.282 3.014a2.436 2.436 0 002.403 0l5.282-3.013a2.425 2.425 0 00.899-3.32l-5.283-9.143zm3.96 10.566h.001a.802.802 0 01-.377.49l-5.282 3.013a.812.812 0 01-.801 0l-5.282-3.014a.81.81 0 01-.3-1.106l5.283-9.142a.808.808 0 011.401 0l5.282 9.142a.8.8 0 01.075.617z" fill="#fff"/><path d="M33.307 32.293h-.002l-5.193 3.273a.813.813 0 01-.862 0l-5.194-3.273a1.347 1.347 0 00-1.76 1.997l5.514 6.68a2.44 2.44 0 003.742 0l5.514-6.68a1.348 1.348 0 00-1.76-1.997zm-5.002 7.649a.808.808 0 01-1.247 0l-1.605-1.946c-.518-.628.246-1.496.934-1.062a2.436 2.436 0 002.588 0c.688-.434 1.452.434.934 1.062l-1.604 1.946z" fill="#fff"/><path d="M67.979 40.74l-4.932-2.848a2 2 0 01-.813-2.578l7.037-15.09a5.667 5.667 0 00-2.738-7.522L54.693 7.18a.574.574 0 01-.33-.52A5.667 5.667 0 0048.702 1H6.66A5.666 5.666 0 001 6.66v57.68A5.667 5.667 0 006.66 70h42.043c.608 0 1.21-.099 1.782-.29.68-.228 1.431-.22 2.129-.053a4.044 4.044 0 002.961-.43l12.404-7.162A4.053 4.053 0 0070 58.563V44.24a4.054 4.054 0 00-2.021-3.5zM54.362 11.95a2 2 0 012.846-1.813l8.642 4.03a4.048 4.048 0 011.955 5.374l-6.828 14.644a2 2 0 01-2.813.886l-2.589-1.495c-.656-.372-1.213-.992-1.213-1.746V11.95zm-5.66 56.433H6.66a4.046 4.046 0 01-4.043-4.043V6.66A4.047 4.047 0 016.66 2.617h42.043a4.046 4.046 0 014.042 4.043v25.17c0 .755-.556 1.376-1.213 1.75a1.707 1.707 0 01-2.56-1.48V13.669a2.428 2.428 0 00-2.425-2.426H8.816a2.428 2.428 0 00-2.426 2.426v31.266a2.429 2.429 0 002.426 2.425h26.291a2 2 0 012 2v1.391a2 2 0 01-2 2H7.2a.809.809 0 000 1.617h27.908a2 2 0 012 2v2.197c.004.344-.254.655-.597.655H7.199a.808.808 0 100 1.617h29.554c.666 0 1.265.359 1.768.795.188.163.392.308.608.434l9.707 5.606c.36.208.282.71-.133.712zm-1.347-54.715v21.167a2 2 0 01-1 1.732l-7.226 4.172a4.053 4.053 0 00-2.022 3.504 1.5 1.5 0 01-1.499 1.5H8.816a.809.809 0 01-.809-.81V13.669a.809.809 0 01.809-.809h37.73a.809.809 0 01.809.809zm21.028 44.896a2.434 2.434 0 01-1.213 2.103l-12.404 7.16a2.432 2.432 0 01-2.425 0l-12.404-7.162a2.433 2.433 0 01-1.213-2.102V44.24a2.433 2.433 0 011.213-2.102l12.404-7.16a2.434 2.434 0 012.425 0L67.17 42.14a2.434 2.434 0 011.213 2.102v14.322z" fill="#fff"/><path d="M55.98 46.55h-4.852a.809.809 0 00-.808.81v8.085a.809.809 0 001.617 0v-.965a2 2 0 012-2h1.503a.808.808 0 000-1.617h-2.156a1.348 1.348 0 010-2.695h2.695a.808.808 0 100-1.617zm-8.086 0a.809.809 0 00-.808.81c0 1.45-1.912 1.98-2.658.736l-.692-1.153a.809.809 0 00-1.502.416v8.086a.809.809 0 001.617 0c0-1.451 1.912-1.98 2.659-.736l.69 1.152a.809.809 0 001.503-.416V47.36a.809.809 0 00-.809-.808zm16.17 0h-4.85a.809.809 0 000 1.618c.892 0 1.616.724 1.616 1.617v5.66a.809.809 0 001.617 0v-5.66c0-.893.724-1.617 1.617-1.617a.808.808 0 000-1.617z" fill="#fff"/><path d="M7.199 8.008h12.397a.808.808 0 000-1.617H7.199a.809.809 0 000 1.617zm22.584 10.106a2.425 2.425 0 00-4.2 0l-5.282 9.142a2.428 2.428 0 00.899 3.32l5.282 3.014a2.436 2.436 0 002.403 0l5.282-3.013a2.425 2.425 0 00.899-3.32l-5.283-9.143zm3.96 10.566h.001a.802.802 0 01-.377.49l-5.282 3.013a.812.812 0 01-.801 0l-5.282-3.014a.81.81 0 01-.3-1.106l5.283-9.142a.808.808 0 011.401 0l5.282 9.142a.8.8 0 01.075.617z" stroke="#fff" stroke-width=".4" mask="url(#path-1-outside-1_10_22337)"/><path d="M33.307 32.293h-.002l-5.193 3.273a.813.813 0 01-.862 0l-5.194-3.273a1.347 1.347 0 00-1.76 1.997l5.514 6.68a2.44 2.44 0 003.742 0l5.514-6.68a1.348 1.348 0 00-1.76-1.997zm-5.002 7.649a.808.808 0 01-1.247 0l-1.605-1.946c-.518-.628.246-1.496.934-1.062a2.436 2.436 0 002.588 0c.688-.434 1.452.434.934 1.062l-1.604 1.946z" stroke="#fff" stroke-width=".4" mask="url(#path-1-outside-1_10_22337)"/><path d="M67.979 40.74l-4.932-2.848a2 2 0 01-.813-2.578l7.037-15.09a5.667 5.667 0 00-2.738-7.522L54.693 7.18a.574.574 0 01-.33-.52A5.667 5.667 0 0048.702 1H6.66A5.666 5.666 0 001 6.66v57.68A5.667 5.667 0 006.66 70h42.043c.608 0 1.21-.099 1.782-.29.68-.228 1.431-.22 2.129-.053a4.044 4.044 0 002.961-.43l12.404-7.162A4.053 4.053 0 0070 58.563V44.24a4.054 4.054 0 00-2.021-3.5zM54.362 11.95a2 2 0 012.846-1.813l8.642 4.03a4.048 4.048 0 011.955 5.374l-6.828 14.644a2 2 0 01-2.813.886l-2.589-1.495c-.656-.372-1.213-.992-1.213-1.746V11.95zm-5.66 56.433H6.66a4.046 4.046 0 01-4.043-4.043V6.66A4.047 4.047 0 016.66 2.617h42.043a4.046 4.046 0 014.042 4.043v25.17c0 .755-.556 1.376-1.213 1.75a1.707 1.707 0 01-2.56-1.48V13.669a2.428 2.428 0 00-2.425-2.426H8.816a2.428 2.428 0 00-2.426 2.426v31.266a2.429 2.429 0 002.426 2.425h26.291a2 2 0 012 2v1.391a2 2 0 01-2 2H7.2a.809.809 0 000 1.617h27.908a2 2 0 012 2v2.197c.004.344-.254.655-.597.655H7.199a.808.808 0 100 1.617h29.554c.666 0 1.265.359 1.768.795.188.163.392.308.608.434l9.707 5.606c.36.208.282.71-.133.712zm-1.347-54.715v21.167a2 2 0 01-1 1.732l-7.226 4.172a4.053 4.053 0 00-2.022 3.504 1.5 1.5 0 01-1.499 1.5H8.816a.809.809 0 01-.809-.81V13.669a.809.809 0 01.809-.809h37.73a.809.809 0 01.809.809zm21.028 44.896a2.434 2.434 0 01-1.213 2.103l-12.404 7.16a2.432 2.432 0 01-2.425 0l-12.404-7.162a2.433 2.433 0 01-1.213-2.102V44.24a2.433 2.433 0 011.213-2.102l12.404-7.16a2.434 2.434 0 012.425 0L67.17 42.14a2.434 2.434 0 011.213 2.102v14.322z" stroke="#fff" stroke-width=".4" mask="url(#path-1-outside-1_10_22337)"/><path d="M55.98 46.55h-4.852a.809.809 0 00-.808.81v8.085a.809.809 0 001.617 0v-.965a2 2 0 012-2h1.503a.808.808 0 000-1.617h-2.156a1.348 1.348 0 010-2.695h2.695a.808.808 0 100-1.617zm-8.086 0a.809.809 0 00-.808.81c0 1.45-1.912 1.98-2.658.736l-.692-1.153a.809.809 0 00-1.502.416v8.086a.809.809 0 001.617 0c0-1.451 1.912-1.98 2.659-.736l.69 1.152a.809.809 0 001.503-.416V47.36a.809.809 0 00-.809-.808zm16.17 0h-4.85a.809.809 0 000 1.618c.892 0 1.616.724 1.616 1.617v5.66a.809.809 0 001.617 0v-5.66c0-.893.724-1.617 1.617-1.617a.808.808 0 000-1.617z" stroke="#fff" stroke-width=".4" mask="url(#path-1-outside-1_10_22337)"/></g><defs><filter id="filter0_bi_10_22337" x="-3.2" y="-3.2" width="77.4" height="77.4" filterUnits="userSpaceOnUse" color-interpolation-filters="sRGB"><feFlood flood-opacity="0" result="BackgroundImageFix"/><feGaussianBlur in="BackgroundImage" stdDeviation="2"/><feComposite in2="SourceAlpha" operator="in" result="effect1_backgroundBlur_10_22337"/><feBlend in="SourceGraphic" in2="effect1_backgroundBlur_10_22337" result="shape"/><feColorMatrix in="SourceAlpha" values="0 0 0 0 0 0 0 0 0 0 0 0 0 0 0 0 0 0 127 0" result="hardAlpha"/><feOffset dy="4"/><feGaussianBlur stdDeviation="6"/><feComposite in2="hardAlpha" operator="arithmetic" k2="-1" k3="1"/><feColorMatrix values="0 0 0 0 0.0472222 0 0 0 0 0.133167 0 0 0 0 0.354167 0 0 0 0.15 0"/><feBlend in2="shape" result="effect2_innerShadow_10_22337"/></filter></defs></svg>