<svg width="71" height="71" fill="none" xmlns="http://www.w3.org/2000/svg"><g filter="url(#filter0_bi_10_22336)"><mask id="path-1-outside-1_10_22336" maskUnits="userSpaceOnUse" x="0" y="0" width="71" height="71" fill="#000"><path fill="#fff" d="M0 0h71v71H0z"/><path d="M61.123 70h3.235c.643 0 1.26-.258 1.715-.714.455-.457.71-1.076.711-1.722V62.13a.79.79 0 01.79-.79 2.42 2.42 0 002.254-1.534 2.444 2.444 0 00-.587-2.67l-4.833-4.59a2.422 2.422 0 00-3.335 0l-4.834 4.59a2.438 2.438 0 00-.586 2.67 2.42 2.42 0 002.254 1.535.79.79 0 01.79.79v5.434c0 .646.256 1.265.71 1.722a2.425 2.425 0 001.716.714zm-3.216-10.284a.806.806 0 01-.751-.511.815.815 0 01.195-.89l4.834-4.59a.807.807 0 011.111 0l4.834 4.59a.812.812 0 01-.556 1.401h-1.598a.808.808 0 00-.81.812v7.036a.813.813 0 01-.808.812h-3.235a.807.807 0 01-.81-.812v-7.036a.814.814 0 00-.808-.812h-1.598zM22.838 20.745h3.236c.643 0 1.26-.257 1.714-.714a2.445 2.445 0 00.712-1.721v-7.06c0-.436.353-.789.789-.789a2.433 2.433 0 002.37-2.96 2.439 2.439 0 00-.702-1.245l-4.833-4.59a2.422 2.422 0 00-3.335 0l-4.834 4.59a2.439 2.439 0 001.668 4.205c.436 0 .789.353.789.79v7.059c0 .645.256 1.264.711 1.721a2.424 2.424 0 001.715.714zM19.623 8.837a.807.807 0 01-.752-.51.816.816 0 01.195-.89l4.835-4.591a.807.807 0 011.11 0l4.834 4.59a.813.813 0 01-.556 1.401H27.69a.807.807 0 00-.809.812v8.66a.813.813 0 01-.808.812h-3.236a.807.807 0 01-.809-.811V9.65a.813.813 0 00-.808-.813h-1.598zM3.426 70h7.98c.427 0 .845-.112 1.214-.325l5.5-3.188c.836-.484 1.925-.183 2.876-.018a2.424 2.424 0 001.623-.288l5.53-3.204a2.44 2.44 0 001.07-1.298c.32-.907.603-1.974 1.434-2.456l1.84-1.066a2 2 0 011.067-.268l15.681.507a6.347 6.347 0 004.525-1.878l14.805-14.817a4.358 4.358 0 001.246-3.323 4.368 4.368 0 00-1.631-3.15 4.376 4.376 0 00-5.808.45l-6.107 6.131c-.819.821-2.22.614-3.234.052a4.368 4.368 0 00-2.183-.548h-6.92a2 2 0 01-1.031-.287L39.206 38.8c-1.79-1.078-8.018-4.38-12.992-1.598L19.486 41.1c-.46.266-1.042.08-1.457-.252a2.43 2.43 0 00-2.725-.206l-5.528 3.204a2.435 2.435 0 00-1.137 1.51 2.45 2.45 0 00-.048.963c.078.527-.052 1.126-.513 1.393L2.213 51.11A2.437 2.437 0 001 53.22v14.344c0 .646.257 1.265.711 1.722A2.425 2.425 0 003.426 70zm23.586-31.386c3.343-1.87 8.06-.41 11.362 1.579l4.365 2.628a.8.8 0 00.415.116h7.723a2.687 2.687 0 011.917.768 2.707 2.707 0 01.814 1.903 2.718 2.718 0 01-.765 1.924 2.698 2.698 0 01-1.896.818h-7.619a.807.807 0 00-.808.811.813.813 0 00.808.812h7.62a4.313 4.313 0 003.229-1.453 4.349 4.349 0 001.072-2.426c.065-.605.246-1.212.676-1.644l7.596-7.624a2.8 2.8 0 013.66-.325 2.718 2.718 0 011.026 1.969 2.728 2.728 0 01-.78 2.078l-14.805 14.82a4.746 4.746 0 01-3.356 1.404l-16.458-.532a.805.805 0 00-.431.108l-2.195 1.271a2 2 0 01-2.736-.733L20.45 44.719a2 2 0 01.73-2.727l5.832-3.378zm-16.43 6.64l5.529-3.205a.81.81 0 011.105.297L27.637 60.46a.819.819 0 01-.296 1.109l-5.53 3.204a.81.81 0 01-1.104-.297l-10.42-18.113a.815.815 0 01.295-1.11zM2.618 53.22a.819.819 0 01.404-.704l4.966-2.878a2 2 0 012.736.733l6.998 12.166a2 2 0 01-.731 2.727l-5.18 3.003a.807.807 0 01-.406.108H3.426a.807.807 0 01-.808-.812V53.221zM46.44 31.187a4.02 4.02 0 004.022 0l9.728-5.638a4.06 4.06 0 002.01-3.496V10.777a4.06 4.06 0 00-2.01-3.496l-9.728-5.638a4.021 4.021 0 00-4.022 0l-9.728 5.638a4.06 4.06 0 00-2.01 3.496v11.276a4.059 4.059 0 002.01 3.496l9.728 5.638zm-10.12-20.41a2.426 2.426 0 011.202-2.09l9.728-5.638a2.404 2.404 0 012.404 0l9.729 5.638a2.416 2.416 0 011.201 2.09v11.276a2.427 2.427 0 01-1.201 2.09l-9.73 5.638a2.404 2.404 0 01-2.403 0l-9.728-5.638a2.416 2.416 0 01-1.202-2.09V10.777z"/><path d="M46.7 20.707a.807.807 0 00.808-.812v-.343a2 2 0 012-2h.784a.808.808 0 00.81-.812.813.813 0 00-.81-.812H48.5a.991.991 0 110-1.983h2.244a.807.807 0 00.809-.812.813.813 0 00-.81-.811H46.7a.807.807 0 00-.81.812v6.761a.813.813 0 00.81.812zm-6.737 0a.807.807 0 00.809-.812c0-1.073 1.414-1.464 1.965-.542l.574.96a.81.81 0 00.91.365.809.809 0 00.593-.783v-6.761a.813.813 0 00-.81-.812.807.807 0 00-.808.812c0 1.073-1.415 1.464-1.966.542l-.574-.96a.81.81 0 00-1.502.418v6.761a.813.813 0 00.809.812zm13.471-6.762c.671 0 1.215.544 1.215 1.215v4.735a.813.813 0 00.809.812.807.807 0 00.808-.812v-4.737c0-.67.543-1.213 1.213-1.213a.807.807 0 00.808-.812.813.813 0 00-.808-.811h-4.044a.807.807 0 00-.81.812.814.814 0 00.81.811zM6.931 35.36h3.236a2.426 2.426 0 001.715-.715c.455-.457.71-1.076.711-1.721v-7.06c0-.436.353-.789.789-.789a2.42 2.42 0 002.255-1.534 2.445 2.445 0 00-.587-2.67l-4.833-4.59a2.422 2.422 0 00-3.335 0l-4.834 4.59a2.439 2.439 0 00-.587 2.67 2.434 2.434 0 002.255 1.534.79.79 0 01.789.79v7.059c0 .645.256 1.264.711 1.721a2.425 2.425 0 001.715.714zM3.716 23.45a.806.806 0 01-.752-.51.815.815 0 01.196-.89l4.833-4.59a.807.807 0 011.112 0l4.836 4.59a.813.813 0 01-.559 1.4h-1.598a.808.808 0 00-.809.812v8.66a.814.814 0 01-.808.813H6.93a.808.808 0 01-.808-.812v-8.66a.814.814 0 00-.81-.813H3.717z"/></mask><path d="M61.123 70h3.235c.643 0 1.26-.258 1.715-.714.455-.457.71-1.076.711-1.722V62.13a.79.79 0 01.79-.79 2.42 2.42 0 002.254-1.534 2.444 2.444 0 00-.587-2.67l-4.833-4.59a2.422 2.422 0 00-3.335 0l-4.834 4.59a2.438 2.438 0 00-.586 2.67 2.42 2.42 0 002.254 1.535.79.79 0 01.79.79v5.434c0 .646.256 1.265.71 1.722a2.425 2.425 0 001.716.714zm-3.216-10.284a.806.806 0 01-.751-.511.815.815 0 01.195-.89l4.834-4.59a.807.807 0 011.111 0l4.834 4.59a.812.812 0 01-.556 1.401h-1.598a.808.808 0 00-.81.812v7.036a.813.813 0 01-.808.812h-3.235a.807.807 0 01-.81-.812v-7.036a.814.814 0 00-.808-.812h-1.598zM22.838 20.745h3.236c.643 0 1.26-.257 1.714-.714a2.445 2.445 0 00.712-1.721v-7.06c0-.436.353-.789.789-.789a2.433 2.433 0 002.37-2.96 2.439 2.439 0 00-.702-1.245l-4.833-4.59a2.422 2.422 0 00-3.335 0l-4.834 4.59a2.439 2.439 0 001.668 4.205c.436 0 .789.353.789.79v7.059c0 .645.256 1.264.711 1.721a2.424 2.424 0 001.715.714zM19.623 8.837a.807.807 0 01-.752-.51.816.816 0 01.195-.89l4.835-4.591a.807.807 0 011.11 0l4.834 4.59a.813.813 0 01-.556 1.401H27.69a.807.807 0 00-.809.812v8.66a.813.813 0 01-.808.812h-3.236a.807.807 0 01-.809-.811V9.65a.813.813 0 00-.808-.813h-1.598zM3.426 70h7.98c.427 0 .845-.112 1.214-.325l5.5-3.188c.836-.484 1.925-.183 2.876-.018a2.424 2.424 0 001.623-.288l5.53-3.204a2.44 2.44 0 001.07-1.298c.32-.907.603-1.974 1.434-2.456l1.84-1.066a2 2 0 011.067-.268l15.681.507a6.347 6.347 0 004.525-1.878l14.805-14.817a4.358 4.358 0 001.246-3.323 4.368 4.368 0 00-1.631-3.15 4.376 4.376 0 00-5.808.45l-6.107 6.131c-.819.821-2.22.614-3.234.052a4.368 4.368 0 00-2.183-.548h-6.92a2 2 0 01-1.031-.287L39.206 38.8c-1.79-1.078-8.018-4.38-12.992-1.598L19.486 41.1c-.46.266-1.042.08-1.457-.252a2.43 2.43 0 00-2.725-.206l-5.528 3.204a2.435 2.435 0 00-1.137 1.51 2.45 2.45 0 00-.048.963c.078.527-.052 1.126-.513 1.393L2.213 51.11A2.437 2.437 0 001 53.22v14.344c0 .646.257 1.265.711 1.722A2.425 2.425 0 003.426 70zm23.586-31.386c3.343-1.87 8.06-.41 11.362 1.579l4.365 2.628a.8.8 0 00.415.116h7.723a2.687 2.687 0 011.917.768 2.707 2.707 0 01.814 1.903 2.718 2.718 0 01-.765 1.924 2.698 2.698 0 01-1.896.818h-7.619a.807.807 0 00-.808.811.813.813 0 00.808.812h7.62a4.313 4.313 0 003.229-1.453 4.349 4.349 0 001.072-2.426c.065-.605.246-1.212.676-1.644l7.596-7.624a2.8 2.8 0 013.66-.325 2.718 2.718 0 011.026 1.969 2.728 2.728 0 01-.78 2.078l-14.805 14.82a4.746 4.746 0 01-3.356 1.404l-16.458-.532a.805.805 0 00-.431.108l-2.195 1.271a2 2 0 01-2.736-.733L20.45 44.719a2 2 0 01.73-2.727l5.832-3.378zm-16.43 6.64l5.529-3.205a.81.81 0 011.105.297L27.637 60.46a.819.819 0 01-.296 1.109l-5.53 3.204a.81.81 0 01-1.104-.297l-10.42-18.113a.815.815 0 01.295-1.11zM2.618 53.22a.819.819 0 01.404-.704l4.966-2.878a2 2 0 012.736.733l6.998 12.166a2 2 0 01-.731 2.727l-5.18 3.003a.807.807 0 01-.406.108H3.426a.807.807 0 01-.808-.812V53.221zM46.44 31.187a4.02 4.02 0 004.022 0l9.728-5.638a4.06 4.06 0 002.01-3.496V10.777a4.06 4.06 0 00-2.01-3.496l-9.728-5.638a4.021 4.021 0 00-4.022 0l-9.728 5.638a4.06 4.06 0 00-2.01 3.496v11.276a4.059 4.059 0 002.01 3.496l9.728 5.638zm-10.12-20.41a2.426 2.426 0 011.202-2.09l9.728-5.638a2.404 2.404 0 012.404 0l9.729 5.638a2.416 2.416 0 011.201 2.09v11.276a2.427 2.427 0 01-1.201 2.09l-9.73 5.638a2.404 2.404 0 01-2.403 0l-9.728-5.638a2.416 2.416 0 01-1.202-2.09V10.777z" fill="#fff"/><path d="M46.7 20.707a.807.807 0 00.808-.812v-.343a2 2 0 012-2h.784a.808.808 0 00.81-.812.813.813 0 00-.81-.812H48.5a.991.991 0 110-1.983h2.244a.807.807 0 00.809-.812.813.813 0 00-.81-.811H46.7a.807.807 0 00-.81.812v6.761a.813.813 0 00.81.812zm-6.737 0a.807.807 0 00.809-.812c0-1.073 1.414-1.464 1.965-.542l.574.96a.81.81 0 00.91.365.809.809 0 00.593-.783v-6.761a.813.813 0 00-.81-.812.807.807 0 00-.808.812c0 1.073-1.415 1.464-1.966.542l-.574-.96a.81.81 0 00-1.502.418v6.761a.813.813 0 00.809.812zm13.471-6.762c.671 0 1.215.544 1.215 1.215v4.735a.813.813 0 00.809.812.807.807 0 00.808-.812v-4.737c0-.67.543-1.213 1.213-1.213a.807.807 0 00.808-.812.813.813 0 00-.808-.811h-4.044a.807.807 0 00-.81.812.814.814 0 00.81.811zM6.931 35.36h3.236a2.426 2.426 0 001.715-.715c.455-.457.71-1.076.711-1.721v-7.06c0-.436.353-.789.789-.789a2.42 2.42 0 002.255-1.534 2.445 2.445 0 00-.587-2.67l-4.833-4.59a2.422 2.422 0 00-3.335 0l-4.834 4.59a2.439 2.439 0 00-.587 2.67 2.434 2.434 0 002.255 1.534.79.79 0 01.789.79v7.059c0 .645.256 1.264.711 1.721a2.425 2.425 0 001.715.714zM3.716 23.45a.806.806 0 01-.752-.51.815.815 0 01.196-.89l4.833-4.59a.807.807 0 011.112 0l4.836 4.59a.813.813 0 01-.559 1.4h-1.598a.808.808 0 00-.809.812v8.66a.814.814 0 01-.808.813H6.93a.808.808 0 01-.808-.812v-8.66a.814.814 0 00-.81-.813H3.717z" fill="#fff"/><path d="M61.123 70h3.235c.643 0 1.26-.258 1.715-.714.455-.457.71-1.076.711-1.722V62.13a.79.79 0 01.79-.79 2.42 2.42 0 002.254-1.534 2.444 2.444 0 00-.587-2.67l-4.833-4.59a2.422 2.422 0 00-3.335 0l-4.834 4.59a2.438 2.438 0 00-.586 2.67 2.42 2.42 0 002.254 1.535.79.79 0 01.79.79v5.434c0 .646.256 1.265.71 1.722a2.425 2.425 0 001.716.714zm-3.216-10.284a.806.806 0 01-.751-.511.815.815 0 01.195-.89l4.834-4.59a.807.807 0 011.111 0l4.834 4.59a.812.812 0 01-.556 1.401h-1.598a.808.808 0 00-.81.812v7.036a.813.813 0 01-.808.812h-3.235a.807.807 0 01-.81-.812v-7.036a.814.814 0 00-.808-.812h-1.598zM22.838 20.745h3.236c.643 0 1.26-.257 1.714-.714a2.445 2.445 0 00.712-1.721v-7.06c0-.436.353-.789.789-.789a2.433 2.433 0 002.37-2.96 2.439 2.439 0 00-.702-1.245l-4.833-4.59a2.422 2.422 0 00-3.335 0l-4.834 4.59a2.439 2.439 0 001.668 4.205c.436 0 .789.353.789.79v7.059c0 .645.256 1.264.711 1.721a2.424 2.424 0 001.715.714zM19.623 8.837a.807.807 0 01-.752-.51.816.816 0 01.195-.89l4.835-4.591a.807.807 0 011.11 0l4.834 4.59a.813.813 0 01-.556 1.401H27.69a.807.807 0 00-.809.812v8.66a.813.813 0 01-.808.812h-3.236a.807.807 0 01-.809-.811V9.65a.813.813 0 00-.808-.813h-1.598zM3.426 70h7.98c.427 0 .845-.112 1.214-.325l5.5-3.188c.836-.484 1.925-.183 2.876-.018a2.424 2.424 0 001.623-.288l5.53-3.204a2.44 2.44 0 001.07-1.298c.32-.907.603-1.974 1.434-2.456l1.84-1.066a2 2 0 011.067-.268l15.681.507a6.347 6.347 0 004.525-1.878l14.805-14.817a4.358 4.358 0 001.246-3.323 4.368 4.368 0 00-1.631-3.15 4.376 4.376 0 00-5.808.45l-6.107 6.131c-.819.821-2.22.614-3.234.052a4.368 4.368 0 00-2.183-.548h-6.92a2 2 0 01-1.031-.287L39.206 38.8c-1.79-1.078-8.018-4.38-12.992-1.598L19.486 41.1c-.46.266-1.042.08-1.457-.252a2.43 2.43 0 00-2.725-.206l-5.528 3.204a2.435 2.435 0 00-1.137 1.51 2.45 2.45 0 00-.048.963c.078.527-.052 1.126-.513 1.393L2.213 51.11A2.437 2.437 0 001 53.22v14.344c0 .646.257 1.265.711 1.722A2.425 2.425 0 003.426 70zm23.586-31.386c3.343-1.87 8.06-.41 11.362 1.579l4.365 2.628a.8.8 0 00.415.116h7.723a2.687 2.687 0 011.917.768 2.707 2.707 0 01.814 1.903 2.718 2.718 0 01-.765 1.924 2.698 2.698 0 01-1.896.818h-7.619a.807.807 0 00-.808.811.813.813 0 00.808.812h7.62a4.313 4.313 0 003.229-1.453 4.349 4.349 0 001.072-2.426c.065-.605.246-1.212.676-1.644l7.596-7.624a2.8 2.8 0 013.66-.325 2.718 2.718 0 011.026 1.969 2.728 2.728 0 01-.78 2.078l-14.805 14.82a4.746 4.746 0 01-3.356 1.404l-16.458-.532a.805.805 0 00-.431.108l-2.195 1.271a2 2 0 01-2.736-.733L20.45 44.719a2 2 0 01.73-2.727l5.832-3.378zm-16.43 6.64l5.529-3.205a.81.81 0 011.105.297L27.637 60.46a.819.819 0 01-.296 1.109l-5.53 3.204a.81.81 0 01-1.104-.297l-10.42-18.113a.815.815 0 01.295-1.11zM2.618 53.22a.819.819 0 01.404-.704l4.966-2.878a2 2 0 012.736.733l6.998 12.166a2 2 0 01-.731 2.727l-5.18 3.003a.807.807 0 01-.406.108H3.426a.807.807 0 01-.808-.812V53.221zM46.44 31.187a4.02 4.02 0 004.022 0l9.728-5.638a4.06 4.06 0 002.01-3.496V10.777a4.06 4.06 0 00-2.01-3.496l-9.728-5.638a4.021 4.021 0 00-4.022 0l-9.728 5.638a4.06 4.06 0 00-2.01 3.496v11.276a4.059 4.059 0 002.01 3.496l9.728 5.638zm-10.12-20.41a2.426 2.426 0 011.202-2.09l9.728-5.638a2.404 2.404 0 012.404 0l9.729 5.638a2.416 2.416 0 011.201 2.09v11.276a2.427 2.427 0 01-1.201 2.09l-9.73 5.638a2.404 2.404 0 01-2.403 0l-9.728-5.638a2.416 2.416 0 01-1.202-2.09V10.777z" stroke="#fff" stroke-width=".4" mask="url(#path-1-outside-1_10_22336)"/><path d="M46.7 20.707a.807.807 0 00.808-.812v-.343a2 2 0 012-2h.784a.808.808 0 00.81-.812.813.813 0 00-.81-.812H48.5a.991.991 0 110-1.983h2.244a.807.807 0 00.809-.812.813.813 0 00-.81-.811H46.7a.807.807 0 00-.81.812v6.761a.813.813 0 00.81.812zm-6.737 0a.807.807 0 00.809-.812c0-1.073 1.414-1.464 1.965-.542l.574.96a.81.81 0 00.91.365.809.809 0 00.593-.783v-6.761a.813.813 0 00-.81-.812.807.807 0 00-.808.812c0 1.073-1.415 1.464-1.966.542l-.574-.96a.81.81 0 00-1.502.418v6.761a.813.813 0 00.809.812zm13.471-6.762c.671 0 1.215.544 1.215 1.215v4.735a.813.813 0 00.809.812.807.807 0 00.808-.812v-4.737c0-.67.543-1.213 1.213-1.213a.807.807 0 00.808-.812.813.813 0 00-.808-.811h-4.044a.807.807 0 00-.81.812.814.814 0 00.81.811zM6.931 35.36h3.236a2.426 2.426 0 001.715-.715c.455-.457.71-1.076.711-1.721v-7.06c0-.436.353-.789.789-.789a2.42 2.42 0 002.255-1.534 2.445 2.445 0 00-.587-2.67l-4.833-4.59a2.422 2.422 0 00-3.335 0l-4.834 4.59a2.439 2.439 0 00-.587 2.67 2.434 2.434 0 002.255 1.534.79.79 0 01.789.79v7.059c0 .645.256 1.264.711 1.721a2.425 2.425 0 001.715.714zM3.716 23.45a.806.806 0 01-.752-.51.815.815 0 01.196-.89l4.833-4.59a.807.807 0 011.112 0l4.836 4.59a.813.813 0 01-.559 1.4h-1.598a.808.808 0 00-.809.812v8.66a.814.814 0 01-.808.813H6.93a.808.808 0 01-.808-.812v-8.66a.814.814 0 00-.81-.813H3.717z" stroke="#fff" stroke-width=".4" mask="url(#path-1-outside-1_10_22336)"/></g><defs><filter id="filter0_bi_10_22336" x="-3.2" y="-3.2" width="77.4" height="77.4" filterUnits="userSpaceOnUse" color-interpolation-filters="sRGB"><feFlood flood-opacity="0" result="BackgroundImageFix"/><feGaussianBlur in="BackgroundImage" stdDeviation="2"/><feComposite in2="SourceAlpha" operator="in" result="effect1_backgroundBlur_10_22336"/><feBlend in="SourceGraphic" in2="effect1_backgroundBlur_10_22336" result="shape"/><feColorMatrix in="SourceAlpha" values="0 0 0 0 0 0 0 0 0 0 0 0 0 0 0 0 0 0 127 0" result="hardAlpha"/><feOffset dy="4"/><feGaussianBlur stdDeviation="6"/><feComposite in2="hardAlpha" operator="arithmetic" k2="-1" k3="1"/><feColorMatrix values="0 0 0 0 0.0472222 0 0 0 0 0.133167 0 0 0 0 0.354167 0 0 0 0.15 0"/><feBlend in2="shape" result="effect2_innerShadow_10_22336"/></filter></defs></svg>