<svg width="72" height="72" fill="none" xmlns="http://www.w3.org/2000/svg"><g filter="url(#filter0_b_239_14)"><circle cx="36" cy="36" r="36" fill="url(#paint0_linear_239_14)"/></g><g filter="url(#filter1_b_239_14)" fill="#fff"><path d="M41.582 31.421v-3.935a.505.505 0 00-.488-.496.505.505 0 00-.489.496v2.183l-1.466-2.447c-.13-.199-.325-.265-.553-.232-.196.066-.359.265-.359.463v3.935c0 .265.228.496.489.496.26 0 .489-.231.489-.496v-2.182l1.465 2.447c.098.165.26.231.424.231.032 0 .097 0 .13-.033.196 0 .358-.198.358-.43zM29.267 49.45h-3.1a.517.517 0 01-.517-.517V26.2a.517.517 0 01.517-.516h7.786a.517.517 0 000-1.034h-7.786a1.55 1.55 0 00-1.55 1.55v22.734a1.55 1.55 0 001.55 1.55h3.1a.517.517 0 100-1.033zm14.466-9.817a.517.517 0 00-.516.517v8.783a.517.517 0 01-.517.517H31.333a.517.517 0 100 1.033H42.7a1.55 1.55 0 001.55-1.55V40.15a.517.517 0 00-.517-.517z"/><path d="M31.22 47.859l1.503-.667 1.509.667a.518.518 0 00.413 0l1.504-.667 1.508.667a.55.55 0 00.413 0l1.55-.683 1.84.548a.516.516 0 00.646-.63l-.651-2.418.728-2.237a.47.47 0 000-.316l-.708-2.2.155-.476a.526.526 0 00-.997-.33l-.206.635a.485.485 0 000 .32l.723 2.212-.708 2.227a.516.516 0 000 .289l.408 1.519-8.633-8.603a.516.516 0 00-.734 0l-3.348 3.348.315-.976a.485.485 0 000-.32l-.707-2.202.707-2.2a.485.485 0 000-.321l-.707-2.201.707-2.201a.516.516 0 000-.295l-.454-1.69 1.142.336a.517.517 0 00.35 0l1.504-.666 1.509.666a.516.516 0 00.413 0l1.199-.516a.519.519 0 10-.413-.95l-.992.438-1.509-.666a.516.516 0 00-.413 0l-1.52.656-1.839-.548a.516.516 0 00-.645.63l.65 2.434-.712 2.217a.486.486 0 000 .32l.707 2.201-.718 2.201a.485.485 0 000 .32l.708 2.197-.708 2.2a.485.485 0 000 .32l.713 2.212-.65 2.434a.516.516 0 00.645.63l1.85-.547 1.55.682a.516.516 0 00.403 0zm-1.716-1.706a.517.517 0 00-.351 0l-1.147.342.455-1.695a.518.518 0 000-.295l-.553-1.715 3.942-3.978 7.393 7.398-1.379.61-1.509-.666a.517.517 0 00-.413 0l-1.509.666-1.508-.666a.518.518 0 00-.414 0l-1.503.66-1.504-.66zm16.813 2.78h2.066V51h-2.066v-2.067zM21 22.582h2.067v2.067H21v-2.067z"/><path d="M50.677 23.482l-5.683-3.168a2.583 2.583 0 00-2.47 0l-5.74 3.168a2.583 2.583 0 00-1.317 2.237v7.161a2.583 2.583 0 001.322 2.242l5.684 3.163a2.583 2.583 0 002.47 0l1.42-.786a.523.523 0 00-.517-.91l-1.42.786a1.55 1.55 0 01-1.478 0l-5.683-3.157a1.55 1.55 0 01-.765-1.338v-7.161a1.55 1.55 0 01.785-1.333l5.684-3.162a1.55 1.55 0 011.477 0l5.684 3.157a1.552 1.552 0 01.837 1.338v7.161a1.55 1.55 0 01-.786 1.338l-2.407 1.333a.516.516 0 10.496.904l2.412-1.338A2.584 2.584 0 0052 32.88v-7.161a2.552 2.552 0 00-1.323-2.238z"/><path d="M45.283 27.75a.517.517 0 100-1.034h-2.066a.517.517 0 00-.517.517v4.133a.517.517 0 101.033 0v-1.55h1.55a.517.517 0 100-1.033h-1.55v-1.034h1.55zm3.1 4.133a.517.517 0 00.517-.517V27.75h.517a.517.517 0 100-1.033H47.35a.517.517 0 000 1.033h.517v3.617a.517.517 0 00.516.517zm-18.6 2.067a2.067 2.067 0 104.134 0 2.067 2.067 0 00-4.134 0zm3.1 0a1.034 1.034 0 11-2.067 0 1.034 1.034 0 012.067 0z"/></g><defs><filter id="filter0_b_239_14" x="-8" y="-8" width="88" height="88" filterUnits="userSpaceOnUse" color-interpolation-filters="sRGB"><feFlood flood-opacity="0" result="BackgroundImageFix"/><feGaussianBlur in="BackgroundImage" stdDeviation="4"/><feComposite in2="SourceAlpha" operator="in" result="effect1_backgroundBlur_239_14"/><feBlend in="SourceGraphic" in2="effect1_backgroundBlur_239_14" result="shape"/></filter><filter id="filter1_b_239_14" x="13" y="12" width="47" height="47" filterUnits="userSpaceOnUse" color-interpolation-filters="sRGB"><feFlood flood-opacity="0" result="BackgroundImageFix"/><feGaussianBlur in="BackgroundImage" stdDeviation="4"/><feComposite in2="SourceAlpha" operator="in" result="effect1_backgroundBlur_239_14"/><feBlend in="SourceGraphic" in2="effect1_backgroundBlur_239_14" result="shape"/></filter><linearGradient id="paint0_linear_239_14" x1="30.727" y1="104.553" x2="105.171" y2="60.88" gradientUnits="userSpaceOnUse"><stop stop-color="#460DE7"/><stop offset="1" stop-color="#EE32DB" stop-opacity=".4"/></linearGradient></defs></svg>