<svg width="72" height="72" fill="none" xmlns="http://www.w3.org/2000/svg"><g filter="url(#filter0_b_239_13)"><circle cx="36" cy="36" r="36" fill="url(#paint0_linear_239_13)"/></g><g filter="url(#filter1_b_239_13)" fill="#fff"><path d="M43.524 28.177c-3.092-4.595-7.22-7.037-9.383-5.54a2.53 2.53 0 00-.61.62c0 .018-5.006 10.252-5.006 10.252L25.73 35.42a3.97 3.97 0 00-1.081 1.109 4.014 4.014 0 00-.567 2.998c.105.513.309 1 .6 1.433l.126.187a3.951 3.951 0 002.515 1.662 3.921 3.921 0 002.945-.603l4.488 6.68c.66.822 1.928 1.64 3.493.677a2.377 2.377 0 001.048-1.623 2.553 2.553 0 00-.387-1.905l-3.955-5.893s9.348-.752 9.383-.766a2.24 2.24 0 00.814-.353c1.11-.762 1.509-2.36 1.124-4.503-.345-1.972-1.327-4.206-2.752-6.344zm-17.7 12.276l-.125-.187a2.765 2.765 0 01-.422-2.063 2.765 2.765 0 011.148-1.759l2.414-1.658 3.186 4.74-2.414 1.658a2.71 2.71 0 01-2.043.427 2.708 2.708 0 01-1.743-1.158zm12.08 6.278a1.316 1.316 0 01-.35 1.81 1.286 1.286 0 01-1.795-.353l-4.475-6.659 1.8-1.235.474-.038 4.346 6.475zm-4.723-7.686l-3.472-5.166 3.311-6.82c.322 1.915 1.261 4.191 2.763 6.425s3.249 3.956 4.89 4.965l-7.492.596zm10.305-.822c-1.67-.11-4.388-2.011-6.69-5.438-2.302-3.426-3.05-6.669-2.536-8.282.093-.302.278-.568.529-.758.25-.19.555-.295.868-.3 1.656 0 4.475 1.912 6.843 5.438 1.335 1.983 2.306 4.058 2.571 5.871.52 3.469-1.585 3.469-1.585 3.469z"/><path d="M39.158 28.307a3.249 3.249 0 00-2.488.519.616.616 0 00-.254.399.627.627 0 00.271.632.61.61 0 00.682-.011 2.086 2.086 0 011.571-.328 2.085 2.085 0 011.34.89 2.129 2.129 0 01.325 1.588 2.128 2.128 0 01-.881 1.354.617.617 0 00-.236.693.618.618 0 00.585.432.593.593 0 00.35-.105 3.343 3.343 0 001.211-1.513 3.382 3.382 0 00.175-1.938 3.359 3.359 0 00-.92-1.709 3.303 3.303 0 00-1.707-.903h-.024zm5.12-4.425h.06a.607.607 0 00.409-.159.62.62 0 00.199-.395l.471-4.63a.623.623 0 00-.311-.622.607.607 0 00-.839.26.62.62 0 00-.065.236l-.468 4.633a.622.622 0 00.133.453.61.61 0 00.411.224zm7.902-.952a.615.615 0 00-.85-.177l-4.257 2.823a.616.616 0 00-.247.7.617.617 0 00.596.433.617.617 0 00.35-.099l4.258-2.823a.618.618 0 00.15-.857zm1.303 7.537l-4.953-.9a.607.607 0 00-.458.101.619.619 0 00-.154.86.612.612 0 00.395.257l4.95.9h.108a.608.608 0 00.424-.156.62.62 0 00-.316-1.073l.004.01z"/></g><defs><filter id="filter0_b_239_13" x="-8" y="-8" width="88" height="88" filterUnits="userSpaceOnUse" color-interpolation-filters="sRGB"><feFlood flood-opacity="0" result="BackgroundImageFix"/><feGaussianBlur in="BackgroundImage" stdDeviation="4"/><feComposite in2="SourceAlpha" operator="in" result="effect1_backgroundBlur_239_13"/><feBlend in="SourceGraphic" in2="effect1_backgroundBlur_239_13" result="shape"/></filter><filter id="filter1_b_239_13" x="16" y="10" width="46" height="48" filterUnits="userSpaceOnUse" color-interpolation-filters="sRGB"><feFlood flood-opacity="0" result="BackgroundImageFix"/><feGaussianBlur in="BackgroundImage" stdDeviation="4"/><feComposite in2="SourceAlpha" operator="in" result="effect1_backgroundBlur_239_13"/><feBlend in="SourceGraphic" in2="effect1_backgroundBlur_239_13" result="shape"/></filter><linearGradient id="paint0_linear_239_13" x1="30.727" y1="104.553" x2="105.171" y2="60.88" gradientUnits="userSpaceOnUse"><stop stop-color="#460DE7"/><stop offset="1" stop-color="#EE32DB" stop-opacity=".4"/></linearGradient></defs></svg>