<svg width="72" height="72" fill="none" xmlns="http://www.w3.org/2000/svg"><g filter="url(#filter0_b_239_15)"><circle cx="36" cy="36" r="36" fill="url(#paint0_linear_239_15)"/></g><g filter="url(#filter1_b_239_15)" fill="#fff"><path d="M48.724 37.88l-.03-4.257c0-.808-.654-1.461-1.432-1.461h-.84v-3.48c0-.715-.59-1.337-1.338-1.337h-2.893A7.113 7.113 0 0035.284 22a7.113 7.113 0 00-6.906 5.345h-3.485A2.906 2.906 0 0022 30.235V47.11A2.906 2.906 0 0024.893 50h22.37c.808 0 1.43-.653 1.43-1.46v-4.942h.031A1.26 1.26 0 0050 42.324v-3.17a1.26 1.26 0 00-1.276-1.274zm-3.64-9.603c.218 0 .405.187.405.404v3.481h-3.765c.436-.963.685-1.989.685-3.046a7.6 7.6 0 00-.062-.838h2.737zm-9.8-5.345a6.184 6.184 0 016.192 6.184 6.11 6.11 0 01-.81 3.046H36.53l1.68-2.797c.093-.155.093-.342 0-.466l-2.52-4.226a.454.454 0 00-.405-.218.532.532 0 00-.404.218l-2.52 4.226c-.093.155-.093.342 0 .466l1.68 2.797h-4.138a6.196 6.196 0 01-.809-3.046 6.184 6.184 0 016.191-6.184zm-.124 7.396c.031 0 .093.032.124.032.032 0 .094 0 .125-.032l1.369-.404-1.338 2.238h-.311l-1.338-2.238 1.369.404zm-1.711-1.491l1.835-3.046 1.836 3.046-1.836.56-1.835-.56zm-8.556-.56h3.33c-.032.28-.063.56-.063.84 0 1.056.249 2.113.684 3.045h-3.95c-1.058 0-1.96-.87-1.96-1.927a1.95 1.95 0 011.96-1.957zM47.76 48.508c0 .28-.218.529-.498.529H24.893a1.95 1.95 0 01-1.96-1.958v-14.73c.498.466 1.183.745 1.96.745h22.37c.28 0 .497.218.497.529v4.257h-2.364a2.853 2.853 0 00-2.863 2.86 2.853 2.853 0 002.863 2.858h2.364v4.91zm1.307-6.184a.345.345 0 01-.343.342h-3.328a1.937 1.937 0 01-1.93-1.927c0-1.056.872-1.927 1.93-1.927h3.328c.187 0 .343.156.343.342v3.17z"/><path d="M46.267 40.273a.478.478 0 00-.467.466c0 .249.218.466.467.466a.478.478 0 00.466-.466.478.478 0 00-.466-.466zm-15.089 2.641v-3.698a.478.478 0 00-.467-.466.478.478 0 00-.467.466v2.051l-1.4-2.3c-.124-.186-.31-.248-.528-.217-.187.062-.343.249-.343.435v3.698c0 .25.218.467.467.467a.478.478 0 00.467-.467v-2.05l1.4 2.3a.453.453 0 00.404.217c.031 0 .093 0 .125-.032.186 0 .342-.186.342-.404zm4.231-3.231a.478.478 0 00.467-.467.478.478 0 00-.467-.466h-2.271a.478.478 0 00-.467.466v3.698c0 .25.218.467.467.467a.478.478 0 00.466-.467v-1.211h1.805a.478.478 0 00.467-.467.478.478 0 00-.467-.466h-1.805v-1.087h1.805zm4.947-.933h-2.49a.478.478 0 00-.466.466c0 .249.218.467.467.467h.777v3.231c0 .25.218.467.467.467a.478.478 0 00.467-.467v-3.231h.778a.478.478 0 00.466-.467.478.478 0 00-.466-.466zm-3.267 5.936l-2.707 1.927-2.675-1.927a.483.483 0 00-.654.093.482.482 0 00.094.653l2.955 2.144a.502.502 0 00.28.093.502.502 0 00.28-.093l2.956-2.144c.218-.156.249-.435.093-.653-.124-.217-.435-.248-.622-.093zm-5.382-7.21l2.706-1.927 2.707 1.927a.502.502 0 00.28.093c.156 0 .28-.062.373-.186a.482.482 0 00-.093-.653l-2.956-2.144c-.155-.124-.373-.124-.56 0L31.21 36.73c-.218.156-.249.435-.093.653.093.186.373.248.59.093z"/></g><defs><filter id="filter0_b_239_15" x="-8" y="-8" width="88" height="88" filterUnits="userSpaceOnUse" color-interpolation-filters="sRGB"><feFlood flood-opacity="0" result="BackgroundImageFix"/><feGaussianBlur in="BackgroundImage" stdDeviation="4"/><feComposite in2="SourceAlpha" operator="in" result="effect1_backgroundBlur_239_15"/><feBlend in="SourceGraphic" in2="effect1_backgroundBlur_239_15" result="shape"/></filter><filter id="filter1_b_239_15" x="14" y="14" width="44" height="44" filterUnits="userSpaceOnUse" color-interpolation-filters="sRGB"><feFlood flood-opacity="0" result="BackgroundImageFix"/><feGaussianBlur in="BackgroundImage" stdDeviation="4"/><feComposite in2="SourceAlpha" operator="in" result="effect1_backgroundBlur_239_15"/><feBlend in="SourceGraphic" in2="effect1_backgroundBlur_239_15" result="shape"/></filter><linearGradient id="paint0_linear_239_15" x1="30.727" y1="104.553" x2="105.171" y2="60.88" gradientUnits="userSpaceOnUse"><stop stop-color="#460DE7"/><stop offset="1" stop-color="#EE32DB" stop-opacity=".4"/></linearGradient></defs></svg>