<svg width="44" height="33" fill="none" xmlns="http://www.w3.org/2000/svg"><g filter="url(#filter0_b_9_7238)"><path d="M36.65 2.736A35.705 35.705 0 0027.839.002a.134.134 0 00-.141.067c-.724 1.287-2.117 2.085-3.59 1.974a32.864 32.864 0 00-4.906-.004c-1.474.11-2.887-.683-3.614-1.97a.139.139 0 00-.142-.067 35.602 35.602 0 00-8.812 2.734.126.126 0 00-.058.05C.962 11.17-.575 19.35.179 27.427c.003.04.026.077.056.101 3.703 2.72 7.29 4.37 10.811 5.465a.14.14 0 00.152-.05 25.673 25.673 0 002.211-3.597.137.137 0 00-.075-.19 23.653 23.653 0 01-3.377-1.61.139.139 0 01-.013-.23c.226-.17.454-.348.67-.527a.134.134 0 01.14-.018c7.086 3.235 14.757 3.235 21.758 0a.133.133 0 01.142.017c.217.178.444.357.672.527a.139.139 0 01-.012.23c-1.078.63-2.2 1.163-3.378 1.608a.138.138 0 00-.074.193 28.823 28.823 0 002.21 3.595.137.137 0 00.152.052c3.538-1.094 7.125-2.745 10.828-5.465a.139.139 0 00.056-.1c.903-9.338-1.512-17.45-6.401-24.642a.11.11 0 00-.056-.051zM14.469 22.509c-2.133 0-3.891-1.958-3.891-4.363 0-2.406 1.723-4.364 3.89-4.364 2.185 0 3.926 1.976 3.892 4.364 0 2.405-1.724 4.363-3.891 4.363zm14.386 0c-2.133 0-3.891-1.958-3.891-4.363 0-2.406 1.723-4.364 3.89-4.364 2.185 0 3.926 1.976 3.892 4.364 0 2.405-1.707 4.363-3.891 4.363z" fill="#fff"/></g><defs><filter id="filter0_b_9_7238" x="-8" y="-8" width="59.295" height="49" filterUnits="userSpaceOnUse" color-interpolation-filters="sRGB"><feFlood flood-opacity="0" result="BackgroundImageFix"/><feGaussianBlur in="BackgroundImage" stdDeviation="4"/><feComposite in2="SourceAlpha" operator="in" result="effect1_backgroundBlur_9_7238"/><feBlend in="SourceGraphic" in2="effect1_backgroundBlur_9_7238" result="shape"/></filter></defs></svg>