<svg width="20" height="19" fill="none" xmlns="http://www.w3.org/2000/svg"><path d="M14.563 10.253v5.316c0 .209-.184.38-.408.38h-.815v1.898c0 .209-.183.38-.407.38-.224 0-.408-.171-.408-.38V15.95h-.815c-.224 0-.407-.171-.407-.38v-5.316c0-.21.183-.38.407-.38h.815v-1.9c0-.209.184-.38.408-.38.224 0 .407.171.407.38v1.899h.815c.224 0 .408.17.408.38zm5.297-4.557v6.835c0 .209-.184.38-.408.38h-.815v1.898c0 .21-.183.38-.407.38-.225 0-.408-.17-.408-.38v-1.898h-.815c-.224 0-.407-.171-.407-.38V5.696c0-.209.183-.38.407-.38h.815V3.797c0-.209.183-.38.408-.38.224 0 .407.171.407.38v1.52h.815c.224 0 .407.17.407.379zM3.969 12.531v3.038c0 .209-.184.38-.408.38h-.815v1.898c0 .209-.183.38-.407.38-.224 0-.408-.171-.408-.38V15.95h-.814c-.225 0-.408-.171-.408-.38v-3.04c0-.209.183-.38.408-.38h.814v-1.898c0-.21.184-.38.408-.38.224 0 .407.17.407.38v1.898h.815c.224 0 .408.171.408.38zM9.266 2.278v7.975c0 .208-.184.38-.408.38h-.815v1.898c0 .209-.183.38-.407.38-.224 0-.408-.171-.408-.38v-1.899h-.815c-.224 0-.407-.17-.407-.38V2.279c0-.208.183-.38.407-.38h.815V.38c0-.21.184-.38.408-.38.224 0 .407.17.407.38v1.519h.815c.224 0 .408.17.408.38z" fill="#8247E6"/></svg>