<svg width="11" height="8" fill="none" xmlns="http://www.w3.org/2000/svg"><path d="M5.826 7.097c-1.893 0-3.706-1.313-4.902-2.676a.61.61 0 010-.814c.3-.343.931-1.004 1.773-1.582C4.818.57 6.83.566 8.955 2.025c.99.68 1.773 1.57 1.773 1.582a.61.61 0 010 .814C9.532 5.784 7.72 7.097 5.826 7.097zm0-5.58c-2.097 0-3.915 1.887-4.422 2.465a.048.048 0 000 .064c.507.578 2.325 2.464 4.422 2.464 2.097 0 3.915-1.886 4.422-2.464.03-.034-.002-.064 0-.064-.507-.578-2.325-2.464-4.422-2.464z" fill="#8247E6"/><path d="M5.826 6.07c-1.202 0-2.18-.923-2.18-2.056 0-1.134.978-2.056 2.18-2.056 1.202 0 2.18.922 2.18 2.056 0 1.133-.978 2.055-2.18 2.055zm0-3.524c-.859 0-1.557.658-1.557 1.468 0 .81.698 1.468 1.557 1.468s1.557-.659 1.557-1.468c0-.81-.698-1.468-1.557-1.468z" fill="#8247E6"/></svg>