<svg width="18" height="33" fill="none" xmlns="http://www.w3.org/2000/svg"><g filter="url(#filter0_b_9_7241)"><path d="M17.17.007L12.89 0C8.083 0 4.976 3.188 4.976 8.121v.745a3 3 0 01-3 3H.673a.673.673 0 00-.673.673v5.425c0 .372.301.673.673.673h1.303a3 3 0 013 3v10.69c0 .372.3.673.672.673h5.614a.673.673 0 00.673-.673v-10.69a3 3 0 013-3h2.031a.673.673 0 00.673-.673l.002-5.425a.674.674 0 00-.673-.673h-2.033a3 3 0 01-3-3v-.174c0-1.526.364-2.3 2.351-2.3l2.883-.002a.673.673 0 00.672-.673V.68c0-.371-.3-.672-.671-.673z" fill="#fff"/></g><defs><filter id="filter0_b_9_7241" x="-8" y="-8" width="33.841" height="49" filterUnits="userSpaceOnUse" color-interpolation-filters="sRGB"><feFlood flood-opacity="0" result="BackgroundImageFix"/><feGaussianBlur in="BackgroundImage" stdDeviation="4"/><feComposite in2="SourceAlpha" operator="in" result="effect1_backgroundBlur_9_7241"/><feBlend in="SourceGraphic" in2="effect1_backgroundBlur_9_7241" result="shape"/></filter></defs></svg>