<svg width="33" height="33" fill="none" xmlns="http://www.w3.org/2000/svg"><g filter="url(#filter0_b_9_7239)" fill="#fff"><path d="M26.093 6.106a.802.802 0 000 1.603.802.802 0 000-1.603zM16.5 9.398A7.11 7.11 0 009.398 16.5a7.11 7.11 0 007.102 7.102 7.11 7.11 0 007.102-7.102A7.11 7.11 0 0016.5 9.398z"/><path d="M23.954 0H9.046C4.058 0 0 4.058 0 9.047v14.907C0 28.942 4.058 33 9.046 33h14.908C28.942 33 33 28.942 33 23.954V9.047C33 4.058 28.942 0 23.954 0zM16.5 25.551c-4.99 0-9.051-4.06-9.051-9.051 0-4.99 4.06-9.051 9.051-9.051 4.99 0 9.051 4.06 9.051 9.051 0 4.99-4.06 9.051-9.051 9.051zm9.593-15.894a2.753 2.753 0 01-2.75-2.75 2.753 2.753 0 012.75-2.75 2.753 2.753 0 012.75 2.75 2.753 2.753 0 01-2.75 2.75z"/></g><defs><filter id="filter0_b_9_7239" x="-8" y="-8" width="49" height="49" filterUnits="userSpaceOnUse" color-interpolation-filters="sRGB"><feFlood flood-opacity="0" result="BackgroundImageFix"/><feGaussianBlur in="BackgroundImage" stdDeviation="4"/><feComposite in2="SourceAlpha" operator="in" result="effect1_backgroundBlur_9_7239"/><feBlend in="SourceGraphic" in2="effect1_backgroundBlur_9_7239" result="shape"/></filter></defs></svg>