<svg width="10" height="8" fill="none" xmlns="http://www.w3.org/2000/svg"><path d="M7.129.418c-.341 0-.678.068-.99.197a2.51 2.51 0 00-.828.556A2.522 2.522 0 004.04.477a2.603 2.603 0 00-1.46.109 2.47 2.47 0 00-1.144.873 2.3 2.3 0 00-.432 1.336c0 2.366 4 4.688 4.174 4.78a.28.28 0 00.277 0c.165-.092 4.165-2.414 4.165-4.78 0-.63-.263-1.234-.73-1.68A2.555 2.555 0 007.13.418zM5.31 7.052c-.696-.424-3.77-2.405-3.77-4.257a1.8 1.8 0 01.379-1.1c.245-.32.59-.555.985-.675.396-.119.82-.115 1.214.012.392.126.733.37.971.693a.28.28 0 00.44 0c.239-.324.58-.568.973-.695a2.041 2.041 0 011.214-.012c.395.12.741.356.986.676.246.32.378.705.378 1.1 0 1.852-3.074 3.832-3.77 4.258z" fill="#8247E6" stroke="#8247E6" stroke-width=".103"/></svg>