<svg width="220" height="63" fill="none" xmlns="http://www.w3.org/2000/svg"><path fill-rule="evenodd" clip-rule="evenodd" d="M10.434 1.181l-.333 1.49-1.394.26c-.767.144-1.394.327-1.394.407 0 .08.588.254 1.306.389 1.465.275 1.54.356 1.89 2.054.133.637.28 1.12.33 1.071.048-.049.243-.704.432-1.458l.344-1.37 1.35-.278c.744-.153 1.352-.347 1.352-.43 0-.083-.621-.26-1.38-.396l-1.38-.245-.25-1.215c-.387-1.878-.507-1.916-.873-.279zm51.523.394c-.241.404-.77.93-1.176 1.17-.69.407-.713.45-.346.658.522.297 1.335 1.1 1.738 1.715l.325.498.37-.766a2.545 2.545 0 011.17-1.171l.8-.406-.496-.319c-.614-.392-1.423-1.202-1.723-1.722-.21-.365-.253-.343-.662.343zM40.279 5.433c-4.4.79-9.081 3.447-11.663 6.617l-.954 1.171-1.62.134c-1.993.165-4.455.982-5.972 1.983-2.434 1.606-4.635 4.784-5.164 7.458l-.23 1.158-1.13.353c-2.65.826-5.106 2.38-7.161 4.531-9.333 9.769-3.924 25.973 9.442 28.29 2.562.444 24.234.444 26.796 0 5.323-.922 9.916-4.328 12.387-9.184.71-1.397 1.47-4.074 1.639-5.776.137-1.385.15-1.41 1.34-2.566 6.395-6.215 7.97-15.602 3.953-23.544C57.984 8.236 49.054 3.856 40.279 5.433zm6.957 3.243c6.489 1.33 11.515 6.14 13.223 12.653.26.989.365 2.113.365 3.879 0 2.956-.332 4.448-1.573 7.061-.828 1.742-2.634 4.42-2.842 4.212-.057-.057-.355-.826-.663-1.71-2.199-6.31-8.04-10.677-15.063-11.256l-1.75-.144-.213-.822c-.866-3.33-3.244-6.366-6.1-7.787a63.056 63.056 0 01-1.282-.648c-.204-.126 1.996-2.132 3.257-2.969 3.705-2.46 8.307-3.358 12.64-2.47zm-18.657 8.072c5.752 1.212 8.873 7.386 6.347 12.556-3.635 7.44-14.598 6.42-16.772-1.56l-.203-.746h3.709l.355.783c1.444 3.183 5.982 4.02 8.52 1.572 1.157-1.116 1.583-2.15 1.583-3.847 0-2.237-.944-3.82-2.837-4.758-1.46-.723-3.454-.723-4.915 0-1.05.52-2.067 1.583-2.434 2.542-.197.515-.237.526-2.032.526h-1.831l.128-.647c.586-2.952 3.899-5.969 7.126-6.489 1.569-.253 1.748-.25 3.256.068zM.913 19.292c-1.542.79-1.017 2.932.719 2.932.887 0 1.478-.588 1.478-1.47 0-1.225-1.157-1.995-2.197-1.462zm176.095 20.63v15.917h5.604v-9.945h.862c.474 0 1.002.112 1.173.249.17.137 1.687 2.288 3.369 4.782 1.682 2.494 3.22 4.62 3.417 4.724.382.203 5.987.27 5.987.072 0-.13-6.406-9.485-7.66-11.187-.781-1.059-.782-1.062-.38-1.434.547-.507 7.64-8.889 7.64-9.029 0-.061-1.286-.111-2.857-.111-2.239 0-2.952.066-3.294.303-.24.168-1.578 1.712-2.974 3.432-3.517 4.334-3.605 4.42-4.52 4.42h-.759l-.052-9-.052-9.001-2.752-.055-2.752-.056v15.918zm-98.455.502V55.84h5.436l-.066-10.492-.067-10.493 1.108 1.393c.61.766 4.19 5.303 7.957 10.082 3.767 4.78 7.085 8.874 7.374 9.1.449.352.808.41 2.499.41h1.974V25.01h-5.21l.053 10.535c.04 7.707-.006 10.47-.168 10.293-.121-.133-3.488-4.403-7.482-9.49-3.994-5.087-7.66-9.72-8.149-10.294l-.888-1.044h-4.371v15.415zm31.017-13.028v2.387h19.812v-4.774H109.57v2.387zm23.414 0v2.387h9.205v26.056h6.003V29.783h9.205v-4.774h-24.413v2.387zm-90.451-.362c3.541.664 7.065 3.215 9.062 6.559.846 1.418 1.744 4.015 1.744 5.048 0 .669-.04.701-2.051 1.663-2.836 1.357-4.292 1.693-7.355 1.695-1.98.002-2.856-.092-4.202-.452-1.968-.525-4.296-1.63-5.831-2.768-1.127-.836-2.304-1.98-2.159-2.101.047-.04.576-.331 1.176-.649 1.404-.744 3.184-2.382 4.136-3.808.845-1.265 1.87-3.992 1.875-4.984l.003-.656 1.25.123a33.01 33.01 0 012.352.33zm-27.627 1.108c.115.41.21.847.21.971s.377.972.836 1.884c1.975 3.922 6.008 6.473 10.404 6.581l1.468.036 1.637 1.63c5.949 5.92 14.657 7.671 22.294 4.482l1.424-.595-.126.735c-.07.404-.544 1.585-1.054 2.624-.777 1.581-1.209 2.166-2.646 3.586-1.892 1.87-3.472 2.816-6.02 3.607l-1.5.466H16.617l-1.5-.466c-2.532-.786-4.127-1.741-6.027-3.608-1.454-1.43-1.867-1.99-2.646-3.584-2.003-4.104-2.015-7.97-.038-12.034a13.685 13.685 0 014.406-5.178c1.205-.854 3.139-1.848 3.644-1.872.133-.006.335.325.45.735zm147.948 5.715c-2.638.736-4.587 2.405-5.182 4.436-.474 1.624-.301 3.652.426 4.98.882 1.611 2.268 2.474 5.795 3.607 3.392 1.09 4.201 1.667 4.201 3 0 .58-.143.92-.578 1.372-.773.802-1.673 1.066-3.318.973-1.097-.061-1.649-.223-2.793-.817-1.358-.705-2.195-.885-2.889-.62-.332.127-1.719 2.26-1.719 2.643 0 .381 2.087 1.577 3.737 2.14 1.336.458 1.904.538 3.867.545 3.465.013 5.547-.74 7.197-2.603 1.093-1.234 1.608-2.692 1.608-4.55 0-3.22-1.465-4.674-6.303-6.251-2.486-.81-3.348-1.234-3.883-1.911-.865-1.093-.314-2.368 1.285-2.974 1.165-.443 2.63-.301 4.327.418.7.296 1.606.581 2.014.633.723.092.763.063 1.555-1.156.448-.688.782-1.346.744-1.462-.134-.411-2.187-1.683-3.406-2.11-1.616-.567-5.15-.722-6.685-.293zm34.625.351c.056.137 2.05 4.68 4.432 10.095l4.331 9.846-2.012 4.276c-1.106 2.352-2.01 4.344-2.009 4.426.001.082 1.072.149 2.381.149 1.995 0 2.451-.058 2.825-.359.292-.235 2.541-5.234 6.509-14.47L220 34.059l-2.535-.057c-2.435-.056-2.551-.04-2.936.402-.221.252-1.428 3.098-2.681 6.323a859.941 859.941 0 01-2.57 6.56l-.291.696-.247-.806c-.539-1.754-5.007-12.35-5.384-12.77-.381-.423-.552-.447-3.191-.447-2.151 0-2.765.057-2.686.248zM109.57 47.187v8.652h6.004V43.308h11.606v-4.773h-17.61v8.652z" fill="#fff"/></svg>