<svg width="21" height="19" fill="none" xmlns="http://www.w3.org/2000/svg"><path d="M18.788.563l-7.184 5.335 1.329-3.148L18.788.563zm0 0l.916 2.736-.613 2.945.382.289-.577.44.447.347-.577.527.36.26-.837.974m.498-8.518l-6.944 5.154M2.205.563l7.126 5.385L8.067 2.75M2.205.563L8.067 2.75M2.205.563L9.15 5.717M2.205.563l-.91 2.736.614 2.945-.39.289.578.44-.44.347.577.527-.36.26.83.974m5.363-6.33h4.873l-1.097 2.966M8.067 2.75L9.15 5.717m5.14 10.143l1.913-2.931 3.357.065m-5.27 2.866l4.093 1.126 1.177-3.992m-5.27 2.866l-2.447-1.191m2.447 1.191l-.34-2.837m.34 2.837l-2.274 1.076.022-.672m2.252-.404l-.346-2.931 2.259.065M14.29 15.86l1.913-2.866M14.29 15.86l-.794.65-1.617 1.119H9.114l-1.61-1.12-.794-.649m12.85-2.866h-3.357m3.357 0l-1.27-3.913M1.446 12.994l1.17 3.992L6.71 15.86m-5.263-2.866l3.35-.065L6.71 15.86m-5.263-2.866l1.256-3.913m-1.256 3.913h3.35M6.71 15.86l2.44-1.191M6.71 15.86l.332-2.837M6.71 15.86l2.274 1.076-.014-.672m-2.26-.404l.346-2.931-2.26.065M6.71 15.86l-1.913-2.866m1.682-5.017l-1.14 1.725m1.14-1.725l2.78-2.462.144 4.368M6.479 7.977L2.703 9.08M6.48 7.977l2.671-2.26M5.338 9.702l4.065.18m-4.065-.18l1.646 1.668M5.338 9.702l1.704 3.32m2.36-3.14L9.02 11.97m.383-2.086l.202 1.306-.108 3.242m-.094-4.548L9.15 5.717m.253 4.166l.086 1.314.008 3.234m5.017-6.454l-2.816-2.513-.094 4.419m2.91-1.906l1.148 1.725m-1.148-1.725l-2.671-2.26m2.67 2.26L18.29 9.08m-6.685.802l4.058-.18m-4.058.18l.376 2.086m-.376-2.086l-.194 1.299.086 3.249m.108-4.548l.239-4.166m-.239 4.166l-.093 1.314-.015 3.234m4.166-4.729l-1.64 1.668m1.64-1.668l-1.711 3.32M9.15 14.67l-2.108-1.646M9.15 14.67l-.18 1.595m.18-1.595l.347-.238m-2.455-1.408l-.058-1.653m.058 1.653l-2.245-.029m7.046 1.675l2.108-1.646m-2.108 1.646l.195 1.595m-.195-1.595l-.347-.238m2.455-1.408l.072-1.653m-.072 1.653l2.252-.029m-4.165 3.27l-.18-.159H9.135l-.166.16m.05-4.296l-2.036-.6m2.036.6l-.6-1.256-1.436.657m2.036.599l-.592-1.256-1.444.657m2.036.599l.477 2.462m2.483-2.462l.599-1.256 1.444.657m-2.043.599l-.484 2.462m.484-2.462l2.043-.6m-4.526 3.062h2m.476-2.462l.599-1.256 1.444.657-2.043.599z" stroke="#fff" stroke-linecap="round" stroke-linejoin="round"/></svg>