<svg width="31" height="31" fill="none" xmlns="http://www.w3.org/2000/svg"><path d="M27.692 5.93h.958a.605.605 0 000-1.21h-2.3a.605.605 0 00-.604.605v2.299a.605.605 0 001.21 0v-.666A14.244 14.244 0 0129.79 15.5c0 7.88-6.41 14.29-14.29 14.29-7.88 0-14.29-6.41-14.29-14.29 0-7.88 6.41-14.29 14.29-14.29.583 0 1.17.036 1.743.105A.605.605 0 0017.39.114 15.72 15.72 0 0015.5 0C11.36 0 7.467 1.612 4.54 4.54A15.398 15.398 0 000 15.5c0 4.14 1.612 8.033 4.54 10.96A15.398 15.398 0 0015.5 31c4.14 0 8.033-1.612 10.96-4.54A15.398 15.398 0 0031 15.5a15.45 15.45 0 00-3.308-9.57z" fill="#fff"/><path d="M6.563 9.137a.605.605 0 00-.835.188 11.6 11.6 0 00-1.721 7.388 11.583 11.583 0 003.321 6.959 11.52 11.52 0 008.172 3.38 11.52 11.52 0 008.172-3.38c4.506-4.506 4.506-11.838 0-16.344a11.584 11.584 0 00-6.948-3.32 11.602 11.602 0 00-7.38 1.708.605.605 0 00.646 1.024c4.11-2.591 9.385-1.997 12.826 1.444 4.035 4.034 4.035 10.598 0 14.632-4.034 4.035-10.598 4.035-14.632 0C4.79 19.423 4.187 14.021 6.75 9.972a.605.605 0 00-.188-.835z" fill="#fff"/><path d="M23.366 16.115h.746a.605.605 0 000-1.21h-.746a.605.605 0 000 1.21zM6.283 15.49c0 .334.27.605.605.605h.746a.605.605 0 000-1.21h-.746a.605.605 0 00-.605.605zm9.832-7.856v-.746a.605.605 0 00-1.21 0v.746a.605.605 0 001.21 0zm-1.23 15.732v.746a.605.605 0 001.21 0v-.746a.605.605 0 00-1.21 0zm-2.418-11.755a.605.605 0 00-.856.856l2.051 2.05a2.087 2.087 0 001.838 3.067 2.087 2.087 0 001.838-3.066l4.138-4.138a.605.605 0 00-.856-.856l-4.138 4.138a2.072 2.072 0 00-1.964 0l-2.05-2.05zm3.907 3.889a.875.875 0 01-1.748 0 .875.875 0 011.748 0zM8.183 8.183a.608.608 0 000-.855.609.609 0 00-.855 0 .609.609 0 00.428 1.033c.16 0 .315-.065.427-.178zm11.508-6.375a.608.608 0 00.606-.605.61.61 0 00-.606-.605.61.61 0 00-.605.605.608.608 0 00.605.605z" fill="#fff"/></svg>