<svg width="40" height="33" fill="none" xmlns="http://www.w3.org/2000/svg"><g filter="url(#filter0_b_9_7240)"><path d="M17.418 20.061a6.25 6.25 0 00-2.059 4.208l-.327 4.595c-.08 1.134.874 2.014 1.681 1.213a7.254 7.254 0 019.297-.609l4.202 3.077c1.67.93 2.846.44 3.296-1.536l5.976-28.003.001-.002.002-.002c.528-2.467-.894-3.432-2.52-2.826L1.838 13.625c-2.397.93-2.36 2.267-.407 2.872a20.49 20.49 0 0016.954-2.195l12.888-8.064c.981-.65 1.874-.29 1.14.36L17.418 20.06z" fill="#fff"/></g><defs><filter id="filter0_b_9_7240" x="-8" y="-8" width="55.599" height="49" filterUnits="userSpaceOnUse" color-interpolation-filters="sRGB"><feFlood flood-opacity="0" result="BackgroundImageFix"/><feGaussianBlur in="BackgroundImage" stdDeviation="4"/><feComposite in2="SourceAlpha" operator="in" result="effect1_backgroundBlur_9_7240"/><feBlend in="SourceGraphic" in2="effect1_backgroundBlur_9_7240" result="shape"/></filter></defs></svg>